<?xml version="1.0" encoding="utf-8"?>
<svg viewBox="0 0 500 500" xmlns="http://www.w3.org/2000/svg">
  <path style="stroke: rgb(0, 0, 0); fill: rgb(254, 247, 123);" d="M 168.599 200.317 L 188.694 186.598 L 188.501 232.971 L 250.332 192.395 L 269.074 204.375 L 217.291 239.154 L 268.881 274.514 L 250.525 286.88 L 188.887 244.951 L 188.694 292.29 L 168.213 278.185 L 168.599 200.317 Z"/>
  <path style="stroke: rgb(0, 0, 0); fill: rgb(254, 247, 123);" d="M 250.912 145.335 L 339.213 204.224 L 287.043 239.584 C 287.043 239.584 339.793 274.17 338.827 274.363 C 337.86 274.557 251.105 333.682 251.105 333.489 C 251.105 333.489 207.243 304.956 207.243 304.763 C 207.243 304.57 207.243 279.773 207.243 279.773 L 250.718 309.143 L 302.501 273.977 L 250.912 239.197 L 303.274 204.224 L 250.718 169.445 L 207.05 198.814 L 207.243 173.695 L 250.912 145.335 Z"/>
</svg>